<svg aria-hidden="true" style="position: absolute; width: 0; height: 0; overflow: hidden;" version="1.1" xmlns="http://www.w3.org/2000/svg" xmlns:xlink="http://www.w3.org/1999/xlink">
<defs>
<symbol id="icon-chart" viewBox="0 0 41 32">
<path d="M40.517 8.373h0.002l-5.657 12.571c-0.279 0.619-0.882 1.061-1.593 1.109v0l-16.293 1.086 0.942 2.688h17.739c2.082 0 3.771 1.689 3.771 3.774 0 2.082-1.689 3.771-3.771 3.771s-3.771-1.689-3.771-3.771h-17.6c0 2.082-1.689 3.771-3.771 3.771s-3.771-1.689-3.771-3.771c0-2.085 1.689-3.774 3.771-3.774h3.408l-7.259-20.741h-4.32c-1.042 0-1.886-0.846-1.886-1.886 0-1.042 0.843-1.886 1.886-1.886h5.657c0.823 0 1.515 0.53 1.774 1.264l0.007-0.002 1.097 3.138h27.922c1.042 0 1.886 0.843 1.886 1.886 0 0.274-0.062 0.535-0.169 0.773zM12.199 9.486l3.486 9.959 16.203-1.081 3.995-8.878h-23.685z"></path>
</symbol>
<symbol id="icon-glass" viewBox="0 0 32 32">
<path d="M30.786 26.636c0.53 0.53 0.859 1.264 0.859 2.075 0 1.62-1.314 2.933-2.933 2.933-0.811 0-1.543-0.329-2.075-0.86v0l-8.597-8.596c-1.746 1.031-3.776 1.634-5.95 1.634-6.48 0-11.733-5.253-11.733-11.733s5.253-11.733 11.733-11.733c6.48 0 11.733 5.253 11.733 11.733 0 2.174-0.603 4.204-1.634 5.95l8.597 8.597zM12.089 3.287c-4.86 0-8.8 3.941-8.8 8.802s3.94 8.8 8.8 8.8c4.86 0 8.8-3.94 8.8-8.8s-3.94-8.802-8.8-8.802z"></path>
</symbol>
</defs>
</svg>
