<svg aria-hidden="true" style="position:absolute;width:0;height:0" xmlns="http://www.w3.org/2000/svg" overflow="hidden"><defs><symbol id="icon-chart" viewBox="0 0 41 32"><path d="M40.517 8.373h.002l-5.657 12.571a1.89 1.89 0 01-1.593 1.109l-16.293 1.086.942 2.688h17.739a3.772 3.772 0 010 7.545 3.772 3.772 0 01-3.771-3.771h-17.6a3.772 3.772 0 11-3.771-3.774h3.408L6.664 5.086h-4.32a1.887 1.887 0 010-3.772h5.657c.823 0 1.515.53 1.774 1.264l.007-.002 1.097 3.138h27.922a1.885 1.885 0 011.717 2.659zM12.199 9.486l3.486 9.959 16.203-1.081 3.995-8.878H12.198z"/></symbol><symbol id="icon-glass" viewBox="0 0 32 32"><path d="M30.786 26.636a2.933 2.933 0 11-4.149 4.148l-8.597-8.596a11.663 11.663 0 01-5.95 1.634C5.61 23.822.357 18.569.357 12.089S5.61.356 12.09.356s11.733 5.253 11.733 11.733c0 2.174-.603 4.204-1.634 5.95l8.597 8.597zM12.089 3.287c-4.86 0-8.8 3.941-8.8 8.802s3.94 8.8 8.8 8.8c4.86 0 8.8-3.94 8.8-8.8s-3.94-8.802-8.8-8.802z"/></symbol></defs></svg>